<svg xmlns="http://www.w3.org/2000/svg" data-name="Layer 1" viewBox="0 0 128 160" x="0px" y="0px"><title>98 Miscellaneous 23</title><path d="M106.9,52.11a7.33,7.33,0,0,0-5.06-3.81h0l.17-.21.53-.67.25-.33q.32-.44.6-.88l.09-.14c.2-.32.4-.65.58-1l.18-.34q.19-.36.37-.72l.17-.35q.2-.43.38-.87l.07-.17c.14-.35.27-.7.39-1l.09-.26q.14-.41.25-.82l.08-.28q.13-.48.24-1l0-.08q.13-.56.23-1.1v0c.06-.35.12-.7.17-1v-.09a29.86,29.86,0,0,0,.18-6.24h0c0-.25,0-.48-.06-.71l0-.36,0-.31c0-.17,0-.34-.06-.49l-.06-.42V28.3c0-.2-.06-.38-.09-.55C104.87,18.49,99.13,11.1,90,6.15A54.78,54.78,0,0,0,75.42,1a47.2,47.2,0,0,0-6.16-.8A53,53,0,0,0,62.12.08Q48,1,38.68,5.69A31.19,31.19,0,0,0,25.64,17,31.77,31.77,0,0,0,21,32.59,47.79,47.79,0,0,0,23.33,49l.15.43a6.27,6.27,0,0,0-2.37,2.65c-1.68,3.63.51,8.13,2.27,11.75a29.81,29.81,0,0,1,1.32,2.94A10.48,10.48,0,0,1,25,68.59a11.93,11.93,0,0,0,.71,3A6.55,6.55,0,0,0,27.66,74a16.63,16.63,0,0,0,.67,5.35c-.2,1.93-.65,8.85,2.33,12.3a14.2,14.2,0,0,1,1.69,2.83,20.15,20.15,0,0,1,.26,3.3,1.09,1.09,0,0,0,0,.18,10.81,10.81,0,0,0,2.56,5.18l.14.15a5.85,5.85,0,0,1,1.08,3.07,8.58,8.58,0,0,0,3.21,6c1.12.82,2.37,3.88,2.9,5.79a2.13,2.13,0,0,0,.28.59,16.41,16.41,0,0,0,3.74,3.89,2,2,0,0,0,1,.36,37.79,37.79,0,0,1,5.67,3.08l.2.11c3.33,1.59,8,1.78,9.94,1.78h.59c1.55,0,6.89,0,10.61-1.78l.2-.11A37.78,37.78,0,0,1,80.4,123a2,2,0,0,0,1-.36,16.42,16.42,0,0,0,3.74-3.89,2.13,2.13,0,0,0,.28-.59c.53-1.91,1.78-5,3-5.82a8.65,8.65,0,0,0,3.16-5.93,6,6,0,0,1,1.08-3.12l.14-.15A10.81,10.81,0,0,0,95.3,98a1.09,1.09,0,0,0,0-.18,20.78,20.78,0,0,1,.25-3.3,1.24,1.24,0,0,0,.1-.31,4.05,4.05,0,0,1,1.08-2.08,2,2,0,0,0,1-1.31c0-.24,1.3-5.89,1.7-8.45a28.2,28.2,0,0,0,.32-7.85,6.87,6.87,0,0,0,2.52-3,11.94,11.94,0,0,0,.71-3,10.56,10.56,0,0,1,.36-1.78,30,30,0,0,1,1.32-2.94C106.39,60.24,108.58,55.74,106.9,52.11Zm-8-33a24.07,24.07,0,0,1,2.41,4.7A13.8,13.8,0,0,1,96,29.69,10.29,10.29,0,0,1,90.9,31a14,14,0,0,1-4.56-.83,2,2,0,0,1,1.32-3.78c2.5.87,4.59.81,6.39-.2C97.06,24.5,98.47,20.56,98.9,19.12ZM87.21,9.19a22.39,22.39,0,0,1-4.55,10.09,11.37,11.37,0,0,0,11.46-5.54A27,27,0,0,1,97,16.65a15.34,15.34,0,0,1-12.92,6.7,20,20,0,0,1-5.24-.72A15.78,15.78,0,0,1,71.1,25H71a2,2,0,0,1-.1-4c10-.49,12.14-10.73,12.52-13.5C84.7,8,86,8.57,87.21,9.19ZM63.61,4c1.25,0,2.65,0,4.07.06a19.4,19.4,0,0,1-1.25,10.4c6.48-1.24,9.69-6.27,11-8.93,1.29.34,2.59.72,3.9,1.17-2.11,4.87-7.68,11.95-17.71,12a16,16,0,0,1-7,4.15A2,2,0,0,1,56,23a2,2,0,0,1-.59-3.91C65.13,16.1,64,6.44,63.61,4ZM33.68,13.75a10.81,10.81,0,0,1,5.24,1.91,10.27,10.27,0,0,1,3.52,4.56A6.28,6.28,0,0,0,45,15.76c.12-3-2.66-5.85-3.79-6.87a42.1,42.1,0,0,1,4-1.61A13.56,13.56,0,0,1,49,14.64c6.1-1.87,7-7.2,7-9.89q1.94-.28,4-.47c.08,5-2.19,12.78-11.64,14.63a12.88,12.88,0,0,1-4.9,5.53c.07.54.11,1.1.14,1.68a2,2,0,0,1-1.91,2.09h-.09a2,2,0,0,1-2-1.91c-.16-3.57-1.17-6.06-3-7.39-2.38-1.71-5.64-1.22-6.69-1A25,25,0,0,1,33.68,13.75ZM29,68a13.75,13.75,0,0,0-.53-2.46A31.85,31.85,0,0,0,27,62.11c-1.32-2.71-3.12-6.42-2.23-8.32a3.69,3.69,0,0,1,2.59-1.67A8.47,8.47,0,0,1,29,52Zm1.18-33.15a15,15,0,0,1-4.62-6.49,26.74,26.74,0,0,1,2.3-7,2,2,0,0,1,.13.53c0,.13.72,6.88,4.62,9.82a7.14,7.14,0,0,0,5.75,1.21,12.51,12.51,0,0,1-2.6,4.1A10.53,10.53,0,0,1,30.18,34.83ZM95.44,81.75c-.29,1.92-1.14,5.86-1.49,7.48a8.35,8.35,0,0,0-2.16,4,18.46,18.46,0,0,0-.48,4.45,7.13,7.13,0,0,1-1.52,2.82c-1.87,1.83-2.21,5-2.26,5.69a4.89,4.89,0,0,1-1.58,3,10.5,10.5,0,0,0-2.89,3.89,25.87,25.87,0,0,0-1.41,3.7,12.79,12.79,0,0,1-2.25,2.39c-1,.27-2.82,1.07-6.69,3.5-2.34,1.07-6.13,1.39-8.79,1.34s-6.37-.27-8.71-1.34c-3.87-2.43-5.74-3.23-6.69-3.5a12.79,12.79,0,0,1-2.25-2.39c-.44-1.49-1.9-5.84-4.26-7.56a4.86,4.86,0,0,1-1.62-3.09c0-.63-.39-3.82-2.26-5.65a7.13,7.13,0,0,1-1.52-2.82,17.25,17.25,0,0,0-.57-4.7,18,18,0,0,0-2.35-3.87c-1.61-1.88-1.68-6.91-1.34-9.65a2.24,2.24,0,0,0-.08-.85,12.6,12.6,0,0,1-.59-4.65A2.35,2.35,0,0,1,32,72.84a.69.69,0,0,1,.19-.22A2,2,0,0,0,33,71V50.1a8.57,8.57,0,0,0,3.45-6.17v0s0-.06,0-.09c0-.29.06-.59.07-.91,0-.11,0-.22,0-.34,0-.27,0-.54,0-.82,0-.09,0-.17,0-.26a13.2,13.2,0,0,0,1.34-1l.12-.11c.2-.18.4-.37.61-.59l.21-.22c.18-.19.36-.39.55-.61l.26-.33c.17-.21.33-.42.49-.65l.29-.42c.15-.23.3-.46.45-.7l.3-.53c.13-.24.26-.49.39-.75s.2-.42.3-.64.1-.21.15-.32l.75-.28c.89-.33,2.06-.77,3.47-1.22h.07a52,52,0,0,1,35.67.64h0c1.09.41,2.18.88,3.29,1.4l0,.06c.1.35.22.67.34,1l.13.32c.12.28.24.54.37.8s.18.33.27.49l.22.36a9.9,9.9,0,0,0,1,1.29,9.18,9.18,0,0,0,3.16,2.29c.22.1.43.19.64.26,0,.51,0,1,0,1.44,0,.2,0,.37,0,.56s0,.48.07.7.07.45.11.66.06.29.09.43.12.47.18.68l.08.23a7.85,7.85,0,0,0,1.94,3.21A1.36,1.36,0,0,0,94,50V71a2,2,0,0,0,.82,1.62C95,72.75,96.61,74.18,95.44,81.75ZM96,42.65c-.23,0-.46,0-.7,0a14.52,14.52,0,0,1,.14-1.92,2,2,0,0,0-1.75-2.25h.09a12.17,12.17,0,0,0,1.83.18,6.72,6.72,0,0,0,4.77-1.4,7.66,7.66,0,0,0,2.29-4.43,9.71,9.71,0,0,0,.19-1.77v0a22.25,22.25,0,0,1-1.47,10.36A11,11,0,0,1,96,42.65Zm5,19.47a32,32,0,0,0-1.51,3.41A14,14,0,0,0,99,68a8.63,8.63,0,0,1-.44,2,2,2,0,0,1-.28.47L98,70.14v-18a8.28,8.28,0,0,1,2.68,0,3.69,3.69,0,0,1,2.59,1.67C104.15,55.7,102.35,59.4,101,62.11Z"/><path d="M61.76,72a5.71,5.71,0,0,0-4.17-.64,4.1,4.1,0,0,1-1.36,0h0l.23-.24c.26-.27.53-.55.78-.86a2,2,0,1,0-3.09-2.54c-.19.22-.38.43-.57.62A4.31,4.31,0,0,0,52,71.42a4,4,0,0,0,1.47,2.85c1.49,1.42,3.37,1.19,4.61,1a4.35,4.35,0,0,1,1.39,0A9,9,0,0,0,64.74,77a9.29,9.29,0,0,0,4-.92,2,2,0,0,0,.31-.18,3.94,3.94,0,0,1,2.19-.58,4.48,4.48,0,0,0,4.51-2.71c.89-2.25-.52-4-1.2-4.81a2,2,0,0,0-3.1,2.53,4.38,4.38,0,0,1,.58.81.58.58,0,0,1-.5.19,7.88,7.88,0,0,0-4.61,1.18,4.94,4.94,0,0,1-5-.42Z"/><path d="M57.7,57.32a2,2,0,0,0-.51-2.66C49.77,49.14,43,53.42,40.47,56.45a2,2,0,0,0,.48,3A15.12,15.12,0,0,0,48.89,62,11,11,0,0,0,57.7,57.32Zm-4.84-.61c-1.39,1-3.77,2-7.3.59A7.43,7.43,0,0,1,52.85,56.71Z"/><path d="M39,53a2,2,0,0,0,1.16-.37c.09-.06,9.1-6.36,16.82-1.53a2,2,0,0,0,2.61-.44l2-2.41a2,2,0,0,0-3.11-2.52l-.9,1.11c-9.51-4.6-19.27,2.21-19.71,2.52A2,2,0,0,0,39,53Z"/><path d="M88,58a2,2,0,0,0-.44-1.6c-2.54-3-9.3-7.3-16.73-1.78a2,2,0,0,0-.51,2.66A11,11,0,0,0,79.11,62a15.12,15.12,0,0,0,7.95-2.58A2,2,0,0,0,88,58ZM75.14,56.71a7.39,7.39,0,0,1,7.31.59C78.91,58.68,76.52,57.74,75.14,56.71Z"/><path d="M68.4,50.67A2,2,0,0,0,71,51.1c7.67-4.8,16.71,1.45,16.83,1.53a2,2,0,0,0,2.32-3.26c-.43-.31-10.2-7.12-19.71-2.52l-.9-1.11a2,2,0,0,0-3.11,2.52Z"/><path d="M77.92,96.71a2,2,0,0,0-.39-.2.63.63,0,0,1-.19-.1,4.87,4.87,0,0,1,0-1.78c0-.32.08-.63.11-.92A8.49,8.49,0,0,0,74.3,86.2,11.11,11.11,0,0,0,67.45,84h0a10.58,10.58,0,0,0-2.87.36,4.91,4.91,0,0,1-1.38.22c-4.5-.89-7.93-.26-10.18,1.88-3.18,3-2.51,7.8-2.49,8a2,2,0,0,0,.1.38c.44,1.25-.74,2.27-1.2,2.61a4.72,4.72,0,0,0-3,2.68c-1.2,2.88.74,6.45,1,6.85a2,2,0,0,0,3.48-2c-.51-.9-1.07-2.6-.76-3.34,0-.09.13-.31.72-.47a2,2,0,0,0,.51-.22c1.59-1,4.23-3.71,3.13-7.24-.05-.62-.15-3,1.32-4.4s4.47-1.27,6.63-.84a7.64,7.64,0,0,0,3.21-.29A6.59,6.59,0,0,1,67.43,88h0a7.12,7.12,0,0,1,4.39,1.34,4.54,4.54,0,0,1,1.67,4c0,.22-.05.46-.08.71-.19,1.43-.64,4.73,2.46,6.06.63.46,2,1.66,2.11,2.81a2,2,0,0,1-.75,1.64,2,2,0,0,0,2.87,2.79A5.9,5.9,0,0,0,82,102.52C81.59,99.18,78.3,97,77.92,96.71Z"/><path d="M68,92H60a2,2,0,0,0,0,4h8a2,2,0,0,0,0-4Z"/><path d="M52.49,81.15a2,2,0,0,0-1.65-3.65A16.69,16.69,0,0,0,41.67,93a2,2,0,0,0,2,2h0a2,2,0,0,0,2-2A12.72,12.72,0,0,1,52.49,81.15Z"/><path d="M76.48,77.51a2,2,0,1,0-1.64,3.65A12.79,12.79,0,0,1,81.66,93a2,2,0,0,0,2,2h0a2,2,0,0,0,2-2A16.69,16.69,0,0,0,76.48,77.51Z"/><path d="M38,80a2,2,0,0,0-2,2v4a2,2,0,0,0,4,0V82A2,2,0,0,0,38,80Z"/><path d="M89,80a2,2,0,0,0-2,2v4a2,2,0,0,0,4,0V82A2,2,0,0,0,89,80Z"/><path d="M57.48,106.66a2,2,0,0,0-2.82-.14,5.14,5.14,0,0,0-1.27,5.82c.31.73,1.22,3.15-.26,3.86a2,2,0,1,0,1.73,3.61c3.08-1.48,3.94-5,2.2-9.05a1.18,1.18,0,0,1,.3-1.29A2,2,0,0,0,57.48,106.66Z"/><path d="M74.87,116.2c-1.48-.71-.57-3.13-.26-3.85a5.14,5.14,0,0,0-1.27-5.83,2,2,0,0,0-2.78.13,2,2,0,0,0,.06,2.81,1.18,1.18,0,0,1,.31,1.3c-1.74,4-.88,7.58,2.2,9.05a2,2,0,1,0,1.73-3.61Z"/><path d="M65.89,100.3a2,2,0,0,0-2.75.66,11,11,0,0,0-1,7.9c1.25,5.19.57,8.63-.59,9.63a2,2,0,1,0,2.61,3c2.66-2.3,3.36-7.38,1.86-13.6a7,7,0,0,1,.54-4.88A2,2,0,0,0,65.89,100.3Z"/><text x="0" y="143" fill="#000000" font-size="5px" font-weight="bold" font-family="'Helvetica Neue', Helvetica, Arial-Unicode, Arial, Sans-serif">Created by WEBTECHOPS LLP</text><text x="0" y="148" fill="#000000" font-size="5px" font-weight="bold" font-family="'Helvetica Neue', Helvetica, Arial-Unicode, Arial, Sans-serif">from the Noun Project</text></svg>